<svg width="65" height="70" viewBox="0 0 65 70" fill="none" xmlns="http://www.w3.org/2000/svg">
<path d="M44.2708 54.2199C43.1067 53.9256 41.8532 53.8079 40.5996 53.8864C38.3834 54.0237 36.1672 54.7497 34.3988 56.0447C34.2421 56.1624 34.0854 56.2801 33.9063 56.3979C31.623 58.0068 28.892 59.0663 25.9595 59.3214C25.8252 59.341 25.6908 59.341 25.5341 59.341C25.3998 59.341 25.2655 59.3606 25.1312 59.3606C23.609 59.4195 22.1316 59.2429 20.7437 58.8897L24.3029 59.8119C25.6908 60.1651 27.1683 60.3417 28.6905 60.2828C28.8248 60.2828 28.9591 60.2632 29.0934 60.2632C29.2277 60.2632 29.3621 60.2436 29.5188 60.2436C32.4513 59.9885 35.1823 58.929 37.4656 57.32C37.6447 57.2023 37.8014 57.0846 37.9581 56.9669C39.7265 55.6719 41.9427 54.9459 44.1589 54.8086C45.4124 54.7301 46.666 54.8478 47.8301 55.1421L44.2708 54.2199Z" fill="url(#paint0_linear_61_656)"/>
<path d="M40.4206 27.3585L36.8613 26.4363C35.9435 26.2009 35.0928 25.8477 34.3094 25.3768C34.1527 25.2787 33.996 25.1806 33.8393 25.0825C32.6752 24.3957 31.444 23.8856 30.1904 23.5717L33.7497 24.4938C35.0033 24.8274 36.2121 25.3179 37.3986 26.0047C37.5553 26.1028 37.712 26.2009 37.8686 26.299C38.6521 26.7699 39.5028 27.1231 40.4206 27.3585Z" fill="url(#paint1_linear_61_656)"/>
<path d="M21.2589 68.6019L17.6996 67.6797C15.1476 67.0126 12.7076 65.9138 10.4914 64.3637C4.73837 60.4199 1.02239 53.945 1 46.4105L4.55929 47.3327C4.58168 54.8672 8.29766 61.3421 14.0507 65.2859C16.2669 66.836 18.7069 67.9348 21.2589 68.6019Z" fill="url(#paint2_linear_61_656)"/>
<path d="M4.58168 47.3329L1.02239 46.4107L1 39.1117L4.5369 40.0339L4.58168 47.3329Z" fill="url(#paint3_linear_61_656)"/>
<path d="M33.3694 14.8405C30.8398 14.193 28.2207 13.9576 25.624 14.1146C13.2896 14.8798 1.20147 24.3763 1 39.1117L4.55929 40.0339C4.76076 25.2985 16.8489 15.802 29.1833 15.0367C31.8024 14.8798 34.4215 15.1152 36.9287 15.7627L33.3694 14.8405Z" fill="url(#paint4_linear_61_656)"/>
<path d="M29.1613 15.0369C37.1529 14.5464 45.2341 17.725 50.2708 25.5342C48.5247 26.8292 46.3086 27.5551 44.0924 27.6925C41.8762 27.8298 39.6601 27.3785 37.8916 26.2798C37.7349 26.1817 37.5782 26.0836 37.4215 25.9855C34.8248 24.455 31.9595 23.8664 29.1613 24.043C21.3264 24.5139 13.9168 30.9692 14.0063 39.4455L14.0287 46.7445C14.0511 54.5929 20.61 60.5773 28.736 60.3026C28.8703 60.3026 29.0046 60.2829 29.1389 60.2829C29.2732 60.2829 29.4075 60.2633 29.5642 60.2633C32.4967 60.0083 35.2277 58.9487 37.5111 57.3398C37.6901 57.2221 37.8468 57.1043 38.0035 56.9866C39.772 55.6916 41.9882 54.9657 44.2043 54.8283C46.4205 54.691 48.6366 55.1422 50.4051 56.2214C45.9728 64.109 37.5558 68.8181 29.0494 69.3282C23.7888 69.6422 18.5058 68.3864 14.0959 65.2863C8.34279 61.3425 4.6268 54.8676 4.60442 47.3331L4.58203 40.0341C4.73873 25.2987 16.8269 15.8022 29.1613 15.0369Z" fill="url(#paint5_linear_61_656)"/>
<path d="M24.5717 55.9664L21.0124 55.0442L20.9229 28.2419L24.4821 29.1838L24.5717 55.9664Z" fill="url(#paint6_linear_61_656)"/>
<path d="M29.2055 27.2997C28.0862 27.0054 26.855 26.9073 25.6238 26.9661C23.9673 27.0642 22.3331 27.4959 20.9229 28.2415L24.4821 29.1637C25.8924 28.4181 27.549 27.9864 29.1831 27.8883C30.4143 27.8098 31.6231 27.9276 32.7648 28.2219L29.2055 27.2997Z" fill="url(#paint7_linear_61_656)"/>
<path d="M29.1833 27.8882C30.8398 27.7901 32.4963 28.0256 33.9066 28.5946L33.9962 55.3576C32.5859 56.1032 30.9294 56.5349 29.2728 56.633C27.6163 56.7311 25.9822 56.5152 24.5495 55.9266L24.46 29.144C25.8926 28.4376 27.5268 28.0059 29.1833 27.8882Z" fill="url(#paint8_linear_61_656)"/>
<path d="M27.1016 1.14504C26.9225 1.1058 26.7435 1.06656 26.5644 1.04694C26.251 1.0077 25.9376 0.988076 25.6018 1.0077C25.2436 1.04694 24.9079 1.1058 24.5945 1.18429C24.1244 1.30201 23.699 1.4786 23.3185 1.69443C23.0499 1.8514 22.826 2.00837 22.6022 2.18496C19.9383 4.40213 20.4308 8.9542 24.0348 9.89601L27.5941 10.8182C26.5868 10.5631 25.8257 10.0137 25.2884 9.30738C25.2213 9.20927 25.1541 9.11117 25.0869 8.99344C24.8855 8.6795 24.7512 8.32633 24.6392 7.97315C24.5945 7.85542 24.5721 7.7377 24.5497 7.61997C24.4825 7.24717 24.4601 6.87437 24.4601 6.50157C24.5049 5.61863 24.7959 4.75531 25.3332 3.99009C25.6466 3.55843 26.0271 3.16601 26.4972 2.85207C26.6092 2.77359 26.7435 2.6951 26.8554 2.61662C27.4822 2.26344 28.2433 2.00837 29.1387 1.91026C29.4073 1.89064 29.6536 1.89064 29.8998 1.92988C30.1461 1.9495 30.3923 1.98875 30.6385 2.06723L27.1016 1.14504Z" fill="url(#paint9_linear_61_656)"/>
<path d="M29.1383 1.93007C31.735 1.77311 33.8616 3.67634 33.8616 6.16821C33.8616 8.66007 31.7574 10.8184 29.1607 10.9754C22.9152 11.1323 22.8928 2.55794 29.1383 1.93007Z" fill="url(#paint10_linear_61_656)"/>
<path d="M57.4342 17.7442H54.5688V16.7435C54.5688 15.4289 55.7777 14.3694 57.2775 14.3694H62.2918C63.7917 14.3694 65.0005 15.4289 65.0005 16.7435V17.705C65.0005 18.9018 63.9931 19.9025 62.65 20.0595L58.3744 20.5304C57.8371 20.5892 57.4342 20.9817 57.4342 21.4526V21.6684H62.8962C64.0603 21.6684 65.0005 22.4925 65.0005 23.5128H54.5688V21.0405C54.5688 19.8633 55.5538 18.8626 56.8746 18.7056L61.083 18.1562C61.5979 18.0974 62.0008 17.6853 62.0008 17.234C62.0008 16.7239 61.5307 16.2922 60.9263 16.2922H58.5087C57.9267 16.2922 57.4342 16.7043 57.4342 17.234V17.7442Z" fill="white"/>
<path d="M29.1383 1.9302C31.735 1.77323 33.8616 3.67646 33.8616 6.16833C33.8616 8.6602 31.7574 10.8185 29.1607 10.9755C22.9152 11.1324 22.8928 2.55807 29.1383 1.9302Z" stroke="white" stroke-width="0.1357" stroke-miterlimit="10" stroke-linecap="round" stroke-linejoin="round"/>
<path d="M30.6382 2.08702L27.0789 1.16483C26.5864 1.04711 26.094 0.988246 25.5791 1.02749C20.3185 1.40029 19.0649 8.48347 24.0345 9.9158L27.5938 10.838" stroke="white" stroke-width="0.1357" stroke-miterlimit="10" stroke-linecap="round" stroke-linejoin="round"/>
<path d="M29.1613 15.0372C37.1529 14.5467 45.2341 17.7253 50.2708 25.5344C48.5247 26.8294 46.3086 27.5554 44.0924 27.6927C41.8762 27.8301 39.6601 27.3788 37.8916 26.28C37.7349 26.1819 37.5782 26.0838 37.4215 25.9857C34.8248 24.4553 31.9595 23.8666 29.1613 24.0432C21.3264 24.5141 13.9168 30.9694 14.0063 39.4457L14.0287 46.7447C14.0511 54.5931 20.61 60.5775 28.736 60.3028C28.8703 60.3028 29.0046 60.2832 29.1389 60.2832C29.2732 60.2832 29.4075 60.2636 29.5642 60.2636C32.4967 60.0085 35.2277 58.949 37.5111 57.34C37.6901 57.2223 37.8468 57.1046 38.0035 56.9869C39.772 55.6919 41.9882 54.9659 44.2043 54.8286C46.4205 54.6912 48.6366 55.1425 50.4051 56.2216C45.9728 64.1093 37.5558 68.8183 29.0494 69.3285C23.7888 69.6424 18.5058 68.3867 14.0959 65.2865C8.34279 61.3427 4.6268 54.8678 4.60442 47.3333L4.58203 40.0343C4.73873 25.299 16.8269 15.8024 29.1613 15.0372Z" stroke="white" stroke-width="0.1357" stroke-miterlimit="10" stroke-linecap="round" stroke-linejoin="round"/>
<path d="M29.1833 27.8883C30.8398 27.7902 32.4963 28.0257 33.9066 28.5947L33.9962 55.3577C32.5859 56.1033 30.9294 56.535 29.2728 56.6331C27.6163 56.7312 25.9822 56.5154 24.5495 55.9267L24.46 29.1441C25.8926 28.4377 27.5268 28.0061 29.1833 27.8883Z" stroke="white" stroke-width="0.1357" stroke-miterlimit="10" stroke-linecap="round" stroke-linejoin="round"/>
<path d="M29.2055 27.2998C28.0862 27.0055 26.855 26.9074 25.6238 26.9663C23.9673 27.0644 22.3331 27.496 20.9229 28.2416L24.4821 29.1638C25.8924 28.4182 27.549 27.9865 29.1831 27.8884C30.4143 27.81 31.6231 27.9277 32.7648 28.222L29.2055 27.2998Z" stroke="white" stroke-width="0.1357" stroke-miterlimit="10" stroke-linecap="round" stroke-linejoin="round"/>
<path d="M24.5717 55.9665L21.0124 55.0443L20.9229 28.2421L24.4821 29.1839L24.5717 55.9665Z" stroke="white" stroke-width="0.1357" stroke-miterlimit="10" stroke-linecap="round" stroke-linejoin="round"/>
<path d="M24.3257 59.8316C25.7136 60.1847 27.191 60.3613 28.7132 60.3025C28.8475 60.3025 28.9818 60.2829 29.1161 60.2829C29.2505 60.2829 29.3848 60.2632 29.5415 60.2632C32.474 60.0082 35.205 58.9486 37.4883 57.3397C37.6674 57.222 37.8241 57.1043 37.9808 56.9865C39.7492 55.6915 41.9654 54.9656 44.1816 54.8282C45.4352 54.7497 46.6887 54.8675 47.8528 55.1618L44.2935 54.2396C43.1295 53.9453 41.8759 53.8275 40.6223 53.906C38.4061 54.0434 36.19 54.7693 34.4215 56.0643C34.2648 56.1821 34.1081 56.2998 33.929 56.4175C31.6457 58.0264 28.9147 59.086 25.9822 59.341C25.8479 59.3607 25.7136 59.3607 25.5569 59.3607C25.4225 59.3607 25.2882 59.3803 25.1539 59.3803C24.2809 59.4195 23.4079 59.3607 22.5796 59.2626" stroke="white" stroke-width="0.1357" stroke-miterlimit="10" stroke-linecap="round" stroke-linejoin="round"/>
<path d="M33.75 24.4941C35.0036 24.8277 36.2124 25.3182 37.3988 26.005C37.5555 26.1031 37.7122 26.2012 37.8689 26.2993C38.6524 26.7702 39.5031 27.1234 40.4209 27.3588" stroke="white" stroke-width="0.1357" stroke-miterlimit="10" stroke-linecap="round" stroke-linejoin="round"/>
<path d="M40.4206 27.3591L36.8613 26.4369C35.9435 26.2014 35.0929 25.8483 34.3094 25.3774C34.1527 25.2793 33.996 25.1811 33.8393 25.083C33.2125 24.7102 32.5857 24.3963 31.9365 24.1412" stroke="white" stroke-width="0.1357" stroke-miterlimit="10" stroke-linecap="round" stroke-linejoin="round"/>
<path d="M33.3694 14.8408C30.8398 14.1933 28.2207 13.9578 25.624 14.1148C13.2896 14.88 1.20147 24.3766 1 39.112L1.02239 46.411C1.04477 53.9454 4.76076 60.4203 10.5138 64.3642C12.73 65.9142 15.17 67.013 17.7219 67.6801L21.2812 68.6023C18.7293 67.9352 16.2893 66.8364 14.0731 65.2864C8.32005 61.3425 4.60406 54.8676 4.58168 47.3331L4.55929 40.0341C4.76076 25.2988 16.8489 15.8022 29.1833 15.037C31.8024 14.88 34.4215 15.1155 36.9287 15.763L33.3694 14.8408Z" stroke="white" stroke-width="0.1357" stroke-miterlimit="10" stroke-linecap="round" stroke-linejoin="round"/>
<defs>
<linearGradient id="paint0_linear_61_656" x1="20.7716" y1="57.0901" x2="47.8299" y2="57.0901" gradientUnits="userSpaceOnUse">
<stop stop-color="#00AEAC"/>
<stop offset="1" stop-color="#003D48"/>
</linearGradient>
<linearGradient id="paint1_linear_61_656" x1="33.4365" y1="19.3245" x2="35.4379" y2="27.862" gradientUnits="userSpaceOnUse">
<stop stop-color="#00AEAC"/>
<stop offset="1" stop-color="#003D48"/>
</linearGradient>
<linearGradient id="paint2_linear_61_656" x1="18.4672" y1="43.6232" x2="8.5965" y2="67.9544" gradientUnits="userSpaceOnUse">
<stop stop-color="#00AEAC"/>
<stop offset="1" stop-color="#003D48"/>
</linearGradient>
<linearGradient id="paint3_linear_61_656" x1="13.4266" y1="36.0569" x2="-18.934" y2="64.3927" gradientUnits="userSpaceOnUse">
<stop stop-color="#00AEAC"/>
<stop offset="1" stop-color="#003D48"/>
</linearGradient>
<linearGradient id="paint4_linear_61_656" x1="23.8907" y1="16.9706" x2="-11.4709" y2="76.012" gradientUnits="userSpaceOnUse">
<stop stop-color="#00CDC7"/>
<stop offset="0.2698" stop-color="#00AEAC"/>
<stop offset="1" stop-color="#003D48"/>
</linearGradient>
<linearGradient id="paint5_linear_61_656" x1="21.7204" y1="12.0673" x2="31.524" y2="69.317" gradientUnits="userSpaceOnUse">
<stop stop-color="#00AEAC"/>
<stop offset="1" stop-color="#003D48"/>
</linearGradient>
<linearGradient id="paint6_linear_61_656" x1="36.8477" y1="21.861" x2="18.9976" y2="55.2105" gradientUnits="userSpaceOnUse">
<stop stop-color="#00DED6"/>
<stop offset="1" stop-color="#003D48"/>
</linearGradient>
<linearGradient id="paint7_linear_61_656" x1="19.9659" y1="24.1715" x2="36.5891" y2="36.9676" gradientUnits="userSpaceOnUse">
<stop stop-color="#00DED6"/>
<stop offset="1" stop-color="#003D48"/>
</linearGradient>
<linearGradient id="paint8_linear_61_656" x1="26.1165" y1="28.3485" x2="34.7894" y2="78.7811" gradientUnits="userSpaceOnUse">
<stop stop-color="#00DED6"/>
<stop offset="1" stop-color="#003D48"/>
</linearGradient>
<linearGradient id="paint9_linear_61_656" x1="26.7605" y1="2.1467" x2="23.8929" y2="10.5771" gradientUnits="userSpaceOnUse">
<stop stop-color="#00CDC7"/>
<stop offset="0.2698" stop-color="#00AEAC"/>
<stop offset="1" stop-color="#003D48"/>
</linearGradient>
<linearGradient id="paint10_linear_61_656" x1="28.2852" y1="0.778909" x2="32.9758" y2="40.2767" gradientUnits="userSpaceOnUse">
<stop stop-color="#00DED6"/>
<stop offset="1" stop-color="#003D48"/>
</linearGradient>
</defs>
</svg>
