<?xml version="1.0" encoding="UTF-8"?>
<svg id="Layer_2" data-name="Layer 2" xmlns="http://www.w3.org/2000/svg" xmlns:xlink="http://www.w3.org/1999/xlink" viewBox="0 0 361.86 505.79">
  <defs>
    <style>
      .cls-1 {
        fill: url(#linear-gradient);
      }

      .cls-1, .cls-2, .cls-3, .cls-4, .cls-5, .cls-6, .cls-7, .cls-8, .cls-9, .cls-10, .cls-11, .cls-12 {
        stroke-width: 0px;
      }

      .cls-2 {
        fill: url(#linear-gradient-6);
      }

      .cls-3 {
        fill: url(#linear-gradient-11);
      }

      .cls-4 {
        fill: url(#linear-gradient-5);
      }

      .cls-5 {
        fill: url(#linear-gradient-2);
      }

      .cls-6 {
        fill: url(#linear-gradient-7);
      }

      .cls-7 {
        fill: url(#linear-gradient-3);
      }

      .cls-8 {
        fill: url(#linear-gradient-9);
      }

      .cls-13 {
        fill: none;
        stroke: #fff;
        stroke-linecap: round;
        stroke-linejoin: round;
        stroke-width: 1.7px;
      }

      .cls-9 {
        fill: url(#linear-gradient-8);
      }

      .cls-10 {
        fill: #fff;
      }

      .cls-11 {
        fill: url(#linear-gradient-10);
      }

      .cls-12 {
        fill: url(#linear-gradient-4);
      }
    </style>
    <linearGradient id="linear-gradient" x1="114.3" y1="359.18" x2="265.82" y2="359.18" gradientUnits="userSpaceOnUse">
      <stop offset="0" stop-color="#00aeac"/>
      <stop offset="1" stop-color="#003d48"/>
    </linearGradient>
    <linearGradient id="linear-gradient-2" x1="185.22" y1="117.9" x2="199.58" y2="171.6" xlink:href="#linear-gradient"/>
    <linearGradient id="linear-gradient-3" x1="101.39" y1="273.14" x2="32.39" y2="422.24" xlink:href="#linear-gradient"/>
    <linearGradient id="linear-gradient-4" x1="73.17" y1="224.8" x2="-128.31" y2="379.43" xlink:href="#linear-gradient"/>
    <linearGradient id="linear-gradient-5" x1="131.77" y1="102.86" x2="-106.97" y2="452.24" gradientUnits="userSpaceOnUse">
      <stop offset="0" stop-color="#00cdc7"/>
      <stop offset=".27" stop-color="#00aeac"/>
      <stop offset="1" stop-color="#003d48"/>
    </linearGradient>
    <linearGradient id="linear-gradient-6" x1="119.61" y1="71.53" x2="190.46" y2="434.18" xlink:href="#linear-gradient"/>
    <linearGradient id="linear-gradient-7" x1="204.32" y1="134.1" x2="82.4" y2="333.76" gradientUnits="userSpaceOnUse">
      <stop offset="0" stop-color="#00ded6"/>
      <stop offset="1" stop-color="#003d48"/>
    </linearGradient>
    <linearGradient id="linear-gradient-8" x1="109.79" y1="148.87" x2="211.66" y2="217.6" xlink:href="#linear-gradient-7"/>
    <linearGradient id="linear-gradient-9" x1="144.23" y1="175.55" x2="206.9" y2="494.99" xlink:href="#linear-gradient-7"/>
    <linearGradient id="linear-gradient-10" x1="147.83" y1="8.15" x2="127.57" y2="60.38" xlink:href="#linear-gradient-5"/>
    <linearGradient id="linear-gradient-11" x1="156.38" y1="-.58" x2="190.42" y2="250.71" xlink:href="#linear-gradient-7"/>
  </defs>
  <g id="Layer_1-2" data-name="Layer 1">
    <g>
      <g>
        <path class="cls-1" d="M245.95,340.88c-6.54-1.94-13.53-2.66-20.52-2.17-12.41.87-24.82,5.53-34.69,13.83-.87.77-1.77,1.51-2.73,2.3-12.78,10.27-28.07,17.01-44.53,18.65-.78.07-1.55.13-2.32.18-.77.05-1.54.1-2.31.14-8.56.34-16.8-.73-24.55-3.03l19.87,5.9c7.75,2.3,15.99,3.37,24.55,3.03.77-.04,1.54-.09,2.31-.14.77-.05,1.54-.12,2.32-.18,16.46-1.64,31.75-8.38,44.53-18.65.97-.8,1.86-1.53,2.73-2.3,9.87-8.31,22.28-12.96,34.69-13.83,6.99-.49,13.98.22,20.52,2.17l-19.87-5.9Z"/>
        <path class="cls-5" d="M224.3,169.22l-19.87-5.9c-5.1-1.51-9.93-3.78-14.27-6.81-.88-.64-1.78-1.26-2.67-1.85-6.56-4.41-13.4-7.6-20.38-9.68l19.87,5.9c6.97,2.07,13.82,5.26,20.38,9.68.9.59,1.79,1.22,2.67,1.85,4.34,3.03,9.17,5.3,14.27,6.81"/>
        <path class="cls-7" d="M117.03,432.67l-19.87-5.9c-14.26-4.23-27.91-11.23-40.3-21.16C24.64,380.39,3.85,339,3.71,290.89l19.87,5.9c.14,48.11,20.93,89.5,53.14,114.73,12.39,9.93,26.05,16.92,40.3,21.16"/>
        <polygon class="cls-12" points="23.58 296.79 3.71 290.89 3.55 244.3 23.42 250.2 23.58 296.79"/>
        <path class="cls-4" d="M184.82,89.27c-14.11-4.19-28.78-5.67-43.39-4.65C72.4,89.46,4.69,150.15,3.55,244.3l19.87,5.9c1.14-94.15,68.84-154.84,137.88-159.67,14.61-1.02,29.28.45,43.39,4.65l-19.87-5.9Z"/>
        <path class="cls-2" d="M161.31,90.53c44.74-3.13,90.04,17.19,118.16,67.08-9.82,8.25-22.22,12.91-34.65,13.78s-24.87-2.05-34.78-8.97c-.88-.64-1.78-1.26-2.67-1.85-14.56-9.8-30.55-13.56-46.21-12.47-43.9,3.06-85.37,44.23-84.91,98.4l.14,46.63c.15,50.17,36.81,88.43,82.35,86.61.77-.04,1.54-.09,2.31-.14.77-.05,1.54-.12,2.32-.18,16.46-1.64,31.75-8.38,44.53-18.65.97-.8,1.86-1.53,2.73-2.3,9.87-8.31,22.28-12.96,34.69-13.83,12.44-.87,24.88,2.07,34.76,8.96-24.8,50.44-71.97,80.42-119.61,83.76-29.45,2.06-59.08-6.06-83.73-25.81-32.22-25.23-53-66.62-53.14-114.73l-.16-46.59c1.14-94.15,68.84-154.84,137.88-159.67Z"/>
        <polygon class="cls-6" points="135.53 351.95 115.66 346.05 115.15 174.93 135.03 180.83 135.53 351.95"/>
        <path class="cls-9" d="M161.54,168.85c-6.32-1.88-13.18-2.56-20.03-2.08-9.23.65-18.45,3.4-26.35,8.16l19.87,5.9c7.9-4.76,17.12-7.51,26.35-8.16,6.85-.48,13.71.2,20.03,2.08l-19.87-5.9Z"/>
        <path class="cls-8" d="M161.37,172.67c9.26-.65,18.53.82,26.48,4.51l.51,171.04c-7.91,4.78-17.17,7.54-26.42,8.19-9.24.65-18.48-.81-26.4-4.46l-.51-171.12c7.9-4.76,17.12-7.51,26.35-8.16Z"/>
        <path class="cls-11" d="M149.68,1.81c-.99-.29-2.02-.5-3.05-.66-1.73-.27-3.52-.37-5.35-.24-1.99.23-3.86.61-5.62,1.15-2.64.8-5.03,1.92-7.16,3.3-1.42.92-2.73,1.96-3.92,3.09-14.93,14.14-12.22,43.18,8.03,49.2l19.87,5.9c-5.67-1.68-9.96-5.17-12.88-9.64-.42-.64-.81-1.29-1.17-1.97-1.08-2.02-1.91-4.21-2.49-6.48-.19-.76-.36-1.53-.49-2.3-.41-2.33-.56-4.72-.46-7.12.23-5.6,1.85-11.22,4.84-16.03,1.71-2.75,3.88-5.23,6.49-7.29.65-.52,1.34-1,2.05-1.47,3.55-2.3,7.81-3.89,12.78-4.45.02,0,.04,0,.05,0,1.45-.1,2.87-.07,4.26.08,1.4.15,2.77.43,4.09.82l-19.87-5.9Z"/>
        <path class="cls-3" d="M161.15,6.81c14.58-1.02,26.44,11.1,26.49,27.07.05,15.97-11.74,29.74-26.32,30.76-35.03.93-35.2-53.85-.17-57.83Z"/>
      </g>
      <path class="cls-10" d="M28.2,496.1c0,5.74-4.24,9.01-12.68,9.01H0v-33.74h14.56c7.52,0,11.86,3.18,11.86,8.67,0,3.86-2.07,6.41-5.16,7.66,4.34.96,6.94,3.81,6.94,8.39ZM3.57,474.32v12.24h10.75c5.4,0,8.53-2.07,8.53-6.12s-3.13-6.12-8.53-6.12H3.57ZM24.63,495.81c0-4.39-3.23-6.31-9.16-6.31H3.57v12.67h11.91c5.93,0,9.16-1.93,9.16-6.36Z"/>
      <path class="cls-10" d="M65.32,493.45v11.66h-3.52v-11.66l-13.5-22.07h3.81l11.57,18.94,11.57-18.94h3.57l-13.5,22.07Z"/>
      <path class="cls-10" d="M149.2,498.56h-14.27l-2.65,6.55h-9.74l14.9-33.74h9.4l14.94,33.74h-9.93l-2.65-6.55ZM146.4,491.52l-4.34-10.8-4.34,10.8h8.68Z"/>
      <path class="cls-10" d="M186.03,471.38h9.55v33.74h-9.55v-33.74Z"/>
      <path class="cls-10" d="M230.19,478.94h-10.36v-7.57h30.23v7.57h-10.32v26.17h-9.55v-26.17Z"/>
      <path class="cls-10" d="M274.3,502.08l3.13-7.04c2.99,1.98,7.23,3.33,11.14,3.33s5.5-1.11,5.5-2.75c0-5.35-19.19-1.45-19.19-13.98,0-6.02,4.92-10.94,14.94-10.94,4.39,0,8.92,1.01,12.24,2.94l-2.94,7.08c-3.23-1.74-6.41-2.6-9.35-2.6-4,0-5.45,1.35-5.45,3.04,0,5.16,19.14,1.3,19.14,13.74,0,5.88-4.92,10.89-14.94,10.89-5.54,0-11.04-1.49-14.22-3.71Z"/>
      <g>
        <path class="cls-13" d="M161.15,6.81c14.58-1.02,26.44,11.1,26.49,27.07.05,15.97-11.74,29.74-26.32,30.76-35.03.93-35.2-53.85-.17-57.83Z"/>
        <path class="cls-13" d="M169.56,7.71l-19.87-5.9c-2.73-.77-5.51-1.1-8.41-.91-29.43,2.35-36.47,47.64-8.67,56.74,0,0,19.87,5.9,19.87,5.9"/>
        <path class="cls-13" d="M161.31,90.53c44.74-3.13,90.04,17.19,118.16,67.08-9.82,8.25-22.22,12.91-34.65,13.78s-24.87-2.05-34.78-8.97c-.88-.64-1.78-1.26-2.67-1.85-14.56-9.8-30.55-13.56-46.21-12.47-43.9,3.06-85.37,44.23-84.91,98.4l.14,46.63c.15,50.17,36.81,88.43,82.35,86.61.77-.04,1.54-.09,2.31-.14.77-.05,1.54-.12,2.32-.18,16.46-1.64,31.75-8.38,44.53-18.65.97-.8,1.86-1.53,2.73-2.3,9.87-8.31,22.28-12.96,34.69-13.83,12.44-.87,24.88,2.07,34.76,8.96-24.8,50.44-71.97,80.42-119.61,83.76-29.45,2.06-59.08-6.06-83.73-25.81-32.22-25.23-53-66.62-53.14-114.73l-.16-46.59c1.14-94.15,68.84-154.84,137.88-159.67Z"/>
        <path class="cls-13" d="M161.37,172.67c9.26-.65,18.53.82,26.48,4.51l.51,171.04c-7.91,4.78-17.17,7.54-26.42,8.19-9.24.65-18.48-.81-26.4-4.46l-.51-171.12c7.9-4.76,17.12-7.51,26.35-8.16Z"/>
        <path class="cls-13" d="M161.54,168.85c-6.32-1.88-13.18-2.56-20.03-2.08-9.23.65-18.45,3.4-26.35,8.16l19.87,5.9c7.9-4.76,17.12-7.51,26.35-8.16,6.85-.48,13.71.2,20.03,2.08l-19.87-5.9Z"/>
        <polygon class="cls-13" points="135.53 351.95 115.66 346.05 115.15 174.93 135.03 180.83 135.53 351.95"/>
        <path class="cls-13" d="M134.17,376.69c7.75,2.3,15.99,3.37,24.55,3.03.77-.04,1.54-.09,2.31-.14.77-.05,1.54-.12,2.32-.18,16.46-1.64,31.75-8.38,44.53-18.65.97-.8,1.86-1.53,2.73-2.3,9.87-8.31,22.28-12.96,34.69-13.83,6.99-.49,13.98.22,20.52,2.17l-19.87-5.9c-6.54-1.94-13.53-2.66-20.52-2.17-12.41.87-24.82,5.53-34.69,13.83-.87.77-1.77,1.51-2.73,2.3-12.78,10.27-28.07,17.01-44.53,18.65-.78.07-1.55.13-2.32.18-.77.05-1.54.1-2.31.14-4.92.2-9.73-.07-14.41-.78"/>
        <path class="cls-13" d="M186.98,150.88c6.97,2.07,13.82,5.26,20.38,9.68.9.59,1.79,1.22,2.67,1.85,4.34,3.03,9.17,5.3,14.27,6.81"/>
        <path class="cls-13" d="M224.3,169.22l-19.87-5.9c-5.1-1.51-9.93-3.78-14.27-6.81-.88-.64-1.78-1.26-2.67-1.85-3.47-2.34-7.02-4.33-10.63-6"/>
        <path class="cls-13" d="M184.82,89.27c-14.11-4.19-28.78-5.67-43.39-4.65C72.4,89.46,4.69,150.15,3.55,244.3l.16,46.59c.14,48.11,20.93,89.5,53.14,114.73,12.39,9.93,26.05,16.92,40.3,21.16l19.87,5.9c-14.26-4.23-27.91-11.23-40.3-21.16-32.22-25.23-53-66.62-53.14-114.73l-.16-46.59h0c1.14-94.15,68.84-154.84,137.88-159.67,14.61-1.02,29.28.45,43.39,4.65l-19.87-5.9Z"/>
      </g>
      <path class="cls-10" d="M319.58,107.78h-16.07s0-6.36,0-6.36c0-8.35,6.77-15.12,15.13-15.12h28.1c8.35,0,15.13,6.77,15.13,15.12v6.16c0,7.61-5.66,14.04-13.22,15l-23.9,3.04c-2.99.38-5.23,2.92-5.23,5.94v1.38h30.55c6.51,0,11.79,5.28,11.79,11.79h0s-58.35,0-58.35,0v-15.83c0-7.49,5.49-13.86,12.9-14.96l23.61-3.51c2.93-.44,5.11-2.95,5.11-5.92h0c0-3.31-2.68-5.99-5.99-5.99h-13.57c-3.31,0-5.99,2.68-5.99,5.99v3.27Z"/>
    </g>
  </g>
</svg>