<svg width="37" height="56" viewBox="0 0 37 56" fill="none" xmlns="http://www.w3.org/2000/svg">
<path d="M20.9498 0.86542C22.7908 0.73943 24.2986 2.26706 24.2986 4.26716C24.2986 6.26725 22.8067 7.99961 20.9657 8.1256C16.5377 8.2516 16.5218 1.36938 20.9498 0.86542Z" stroke="white" stroke-width="0.1357" stroke-miterlimit="10" stroke-linecap="round" stroke-linejoin="round"/>
<path d="M22.0131 0.991499L19.4896 0.251307C19.1404 0.156814 18.7913 0.109568 18.4262 0.141065C14.6965 0.440292 13.8078 6.1256 17.3311 7.27526L19.8546 8.01545" stroke="white" stroke-width="0.1357" stroke-miterlimit="10" stroke-linecap="round" stroke-linejoin="round"/>
<path d="M20.9659 11.3857C26.6319 10.992 32.3613 13.5433 35.9323 19.8113C34.6944 20.8507 33.1231 21.4334 31.5519 21.5436C29.9807 21.6539 28.4094 21.2917 27.1556 20.4097C27.0445 20.331 26.9334 20.2522 26.8223 20.1735C24.9813 18.9451 22.9498 18.4726 20.9659 18.6144C15.4111 18.9923 10.1578 24.1737 10.2212 30.9772L10.2371 36.8357C10.253 43.1352 14.9032 47.9386 20.6644 47.7181C20.7596 47.7181 20.8548 47.7024 20.9501 47.7024C21.0453 47.7024 21.1405 47.6866 21.2516 47.6866C23.3307 47.4819 25.267 46.6314 26.8858 45.34C27.0128 45.2455 27.1239 45.1511 27.235 45.0566C28.4888 44.0171 30.06 43.4344 31.6312 43.3242C33.2025 43.214 34.7737 43.5762 36.0275 44.4424C32.8851 50.7734 26.9176 54.5531 20.8866 54.9625C17.1569 55.2145 13.4113 54.2066 10.2847 51.7183C6.20588 48.5528 3.57129 43.3557 3.55542 37.3082L3.53955 31.4496C3.65065 19.6223 12.221 11.9999 20.9659 11.3857Z" stroke="white" stroke-width="0.1357" stroke-miterlimit="10" stroke-linecap="round" stroke-linejoin="round"/>
<path d="M20.9816 21.7012C22.1561 21.6225 23.3305 21.8114 24.3304 22.2682L24.3939 43.7495C23.394 44.3479 22.2195 44.6944 21.0451 44.7732C19.8706 44.8519 18.712 44.6787 17.6963 44.2062L17.6328 22.7091C18.6486 22.1422 19.8071 21.7957 20.9816 21.7012Z" stroke="white" stroke-width="0.1357" stroke-miterlimit="10" stroke-linecap="round" stroke-linejoin="round"/>
<path d="M20.9973 21.2286C20.2037 20.9923 19.3308 20.9136 18.4579 20.9608C17.2835 21.0396 16.1249 21.3861 15.125 21.9845L17.6485 22.7247C18.6484 22.1263 19.8228 21.7798 20.9814 21.701C21.8543 21.638 22.7113 21.7325 23.5208 21.9688L20.9973 21.2286Z" stroke="white" stroke-width="0.1357" stroke-miterlimit="10" stroke-linecap="round" stroke-linejoin="round"/>
<path d="M17.712 44.2376L15.1885 43.4974L15.125 21.9846L17.6485 22.7406L17.712 44.2376Z" stroke="white" stroke-width="0.1357" stroke-miterlimit="10" stroke-linecap="round" stroke-linejoin="round"/>
<path d="M17.5377 47.3401C18.5217 47.6236 19.5692 47.7653 20.6485 47.7181C20.7437 47.7181 20.8389 47.7023 20.9341 47.7023C21.0294 47.7023 21.1246 47.6866 21.2357 47.6866C23.3148 47.4818 25.2511 46.6314 26.8699 45.34C26.9969 45.2455 27.108 45.151 27.2191 45.0565C28.4729 44.0171 30.0441 43.4344 31.6153 43.3242C32.5041 43.2612 33.3929 43.3557 34.2182 43.5919L31.6947 42.8517C30.8694 42.6155 29.9806 42.521 29.0918 42.584C27.5206 42.6942 25.9494 43.2769 24.6956 44.3163C24.5845 44.4108 24.4734 44.5053 24.3464 44.5998C22.7276 45.8912 20.7913 46.7416 18.7122 46.9464C18.617 46.9621 18.5217 46.9621 18.4106 46.9621C18.3154 46.9621 18.2202 46.9779 18.125 46.9779C17.506 47.0094 16.887 46.9621 16.2998 46.8834" stroke="white" stroke-width="0.1357" stroke-miterlimit="10" stroke-linecap="round" stroke-linejoin="round"/>
<path d="M24.2192 18.9766C25.108 19.2443 25.965 19.638 26.8062 20.1892C26.9173 20.268 27.0284 20.3467 27.1395 20.4254C27.695 20.8034 28.2981 21.0869 28.9488 21.2759" stroke="white" stroke-width="0.1357" stroke-miterlimit="10" stroke-linecap="round" stroke-linejoin="round"/>
<path d="M28.9487 21.2759L26.4252 20.5357C25.7745 20.3467 25.1714 20.0633 24.6159 19.6853C24.5048 19.6065 24.3937 19.5278 24.2826 19.4491C23.8382 19.1498 23.3939 18.8978 22.9336 18.6931" stroke="white" stroke-width="0.1357" stroke-miterlimit="10" stroke-linecap="round" stroke-linejoin="round"/>
<path d="M23.9495 11.2283C22.1561 10.7086 20.2992 10.5196 18.4581 10.6456C9.71319 11.2598 1.14284 18.8822 1 30.7095L1.01587 36.5681C1.03174 42.6156 3.66633 47.8127 7.74518 50.9782C9.31641 52.2223 11.0464 53.1043 12.8556 53.6397L15.3791 54.3799C13.5698 53.8445 11.8399 52.9625 10.2687 51.7184C6.18982 48.5529 3.55523 43.3558 3.53936 37.3083L3.52349 31.4497C3.66633 19.6224 12.2367 12 20.9816 11.3858C22.8385 11.2598 24.6954 11.4488 26.473 11.9685L23.9495 11.2283Z" stroke="white" stroke-width="0.1357" stroke-miterlimit="10" stroke-linecap="round" stroke-linejoin="round"/>
</svg>
