<svg width="54" height="53" viewBox="0 0 54 53" fill="none" xmlns="http://www.w3.org/2000/svg">
<circle cx="26.8889" cy="26.3889" r="26.3889" fill="#181818"/>
<path d="M27.6146 32.0886C30.9929 32.0886 33.7316 29.3499 33.7316 25.9716C33.7316 22.5932 30.9929 19.8546 27.6146 19.8546C24.2362 19.8546 21.4976 22.5932 21.4976 25.9716C21.4976 29.3499 24.2362 32.0886 27.6146 32.0886Z" stroke="white" stroke-width="2" stroke-linecap="round" stroke-linejoin="round"/>
<path d="M36.218 20.0055C36.5257 20.4403 36.7951 20.9003 37.0232 21.3804L40.3332 23.1967C40.7465 25.0238 40.7509 26.9178 40.346 28.7467L37.0232 30.563C36.7951 31.0432 36.5257 31.5032 36.218 31.9379L36.2819 35.6841C34.8791 36.9458 33.2188 37.8963 31.4127 38.4717L28.1538 36.5418C27.6177 36.5797 27.0796 36.5797 26.5435 36.5418L23.2973 38.4591C21.4855 37.8941 19.8197 36.9473 18.4153 35.6841L18.4792 31.9505C18.1741 31.5097 17.9049 31.0458 17.6741 30.563L14.364 28.7467C13.9507 26.9197 13.9464 25.0256 14.3513 23.1967L17.6741 21.3804C17.9022 20.9003 18.1716 20.4403 18.4792 20.0055L18.4153 16.2593C19.8181 14.9977 21.4784 14.0472 23.2846 13.4717L26.5435 15.4016C27.0796 15.3638 27.6177 15.3638 28.1538 15.4016L31.3999 13.4844C33.2118 14.0493 34.8775 14.9961 36.2819 16.2593L36.218 20.0055Z" stroke="white" stroke-width="2" stroke-linecap="round" stroke-linejoin="round"/>
</svg>
