<svg width="54" height="53" viewBox="0 0 54 53" fill="none" xmlns="http://www.w3.org/2000/svg">
<circle cx="26.8889" cy="26.3889" r="26.3889" fill="#181818"/>
<path d="M43.4711 9.77051H10.2476V42.9941H43.4711V9.77051Z" fill="#181818"/>
<path d="M26.8592 38.8411C33.7401 38.8411 39.3181 33.2631 39.3181 26.3823C39.3181 19.5015 33.7401 13.9235 26.8592 13.9235C19.9784 13.9235 14.4004 19.5015 14.4004 26.3823C14.4004 33.2631 19.9784 38.8411 26.8592 38.8411Z" fill="#181818" stroke="white" stroke-width="2" stroke-linecap="round" stroke-linejoin="round"/>
<path d="M16.6846 33.5721L18.203 32.6507C18.3536 32.5578 18.4779 32.4279 18.5642 32.2735C18.6506 32.119 18.696 31.9451 18.6962 31.7682L18.7221 27.0831C18.7242 26.8889 18.7828 26.6995 18.8908 26.538L21.4605 22.5019C21.5376 22.3827 21.638 22.2803 21.7558 22.2009C21.8736 22.1216 22.0062 22.0669 22.1457 22.0402C22.2852 22.0135 22.4286 22.0154 22.5673 22.0457C22.7061 22.0759 22.8372 22.134 22.9529 22.2164L25.4966 24.0593C25.7161 24.2123 25.9832 24.2813 26.2493 24.2539L30.3374 23.6959C30.5854 23.6617 30.812 23.5369 30.9733 23.3455L33.8544 20.0231C34.0253 19.8206 34.1133 19.561 34.101 19.2963L33.9582 16.1427" fill="#181818"/>
<path d="M16.6846 33.5721L18.203 32.6507C18.3536 32.5578 18.4779 32.4279 18.5642 32.2735C18.6506 32.119 18.696 31.9451 18.6962 31.7682L18.7221 27.0831C18.7242 26.8889 18.7828 26.6995 18.8908 26.538L21.4605 22.5019C21.5376 22.3827 21.638 22.2803 21.7558 22.2009C21.8736 22.1216 22.0062 22.0669 22.1457 22.0402C22.2852 22.0135 22.4286 22.0154 22.5673 22.0457C22.7061 22.0759 22.8372 22.134 22.9529 22.2164L25.4966 24.0593C25.7161 24.2123 25.9832 24.2813 26.2493 24.2539L30.3374 23.6959C30.5854 23.6617 30.812 23.5369 30.9733 23.3455L33.8544 20.0231C34.0253 19.8206 34.1133 19.561 34.101 19.2963L33.9582 16.1427" stroke="white" stroke-width="2" stroke-linecap="round" stroke-linejoin="round"/>
<path d="M34.5292 36.2066L33.1276 34.805C32.9979 34.6754 32.837 34.5815 32.6604 34.5324L29.8701 33.8057C29.625 33.7386 29.4131 33.584 29.2744 33.3711C29.1356 33.1583 29.0798 32.9019 29.1174 32.6506L29.4159 30.5482C29.4455 30.3714 29.5193 30.2049 29.6305 30.0642C29.7417 29.9236 29.8866 29.8133 30.0518 29.7436L33.9971 28.0954C34.1803 28.019 34.3817 27.9967 34.5772 28.0312C34.7727 28.0657 34.9542 28.1555 35.1002 28.29L38.3317 31.249" fill="#181818"/>
<path d="M34.5292 36.2066L33.1276 34.805C32.9979 34.6754 32.837 34.5815 32.6604 34.5324L29.8701 33.8057C29.625 33.7386 29.4131 33.584 29.2744 33.3711C29.1356 33.1583 29.0798 32.9019 29.1174 32.6506L29.4159 30.5482C29.4455 30.3714 29.5193 30.2049 29.6305 30.0642C29.7417 29.9236 29.8866 29.8133 30.0518 29.7436L33.9971 28.0954C34.1803 28.019 34.3817 27.9967 34.5772 28.0312C34.7727 28.0657 34.9542 28.1555 35.1002 28.29L38.3317 31.249" stroke="white" stroke-width="2" stroke-linecap="round" stroke-linejoin="round"/>
</svg>
